<svg width="60" height="52" viewBox="0 0 60 52" fill="none" xmlns="http://www.w3.org/2000/svg">
<g id="icon">
<g id="Group">
<g id="Group_2">
<path id="Vector" d="M56.0493 28.9481L51.3074 27.1191L48.8898 24.7014C48.7346 24.5462 48.5345 24.4621 48.3302 24.449V22.5253C49.4696 21.3104 50.2807 19.7719 50.608 18.0387C50.8112 18.0478 51.0164 18.0315 51.2187 17.9901C52.3773 17.7529 53.2183 16.6779 53.2183 15.4342V14.7992C53.2183 14.0798 52.9265 13.4193 52.4514 12.9472C53.2204 8.76507 52.587 5.35695 50.6116 3.07585C48.7009 0.869519 45.6225 -0.185056 41.7097 0.0266021C38.0947 0.222006 35.761 1.88532 35.0216 2.49382C34.6169 2.54189 33.9274 2.684 33.2297 3.10267C32.2625 3.68296 31.1097 4.90194 31.1097 7.41362C31.1097 9.60474 31.4599 11.4341 31.7134 12.4719C30.8636 12.886 30.295 13.7832 30.295 14.809V15.4341C30.295 16.6778 31.1359 17.7528 32.2946 17.99C32.4969 18.0315 32.7022 18.0477 32.9053 18.0386C33.2326 19.7718 34.0438 21.3103 35.1831 22.5252V24.4489C34.9788 24.462 34.7786 24.5461 34.6235 24.7013L32.2058 27.119L27.464 28.9479C27.0538 29.1061 26.662 29.3112 26.2995 29.5575C25.9017 29.8278 25.7984 30.3693 26.0686 30.7671C26.237 31.0151 26.5109 31.1486 26.7896 31.1486C26.958 31.1486 27.1283 31.0997 27.2781 30.998C27.5309 30.8263 27.8043 30.6832 28.0908 30.5727L32.4915 28.8753L35.8562 33.9224C36.2732 34.5481 36.9417 34.9495 37.69 35.0236C37.7733 35.0318 37.8565 35.0359 37.9392 35.0359C38.3724 35.0359 38.7927 34.922 39.1647 34.7115L38.4426 51.0901C38.4214 51.5705 38.7937 51.9772 39.2743 51.9984C39.2873 51.9989 39.3003 51.9992 39.3133 51.9992C39.7765 51.9992 40.162 51.634 40.1826 51.1667L40.8527 35.9639H42.6605L43.3306 51.1667C43.3512 51.6341 43.7366 51.9992 44.1999 51.9992C44.2129 51.9992 44.2259 51.9989 44.2389 51.9984C44.7193 51.9772 45.0917 51.5705 45.0706 51.0901L44.3485 34.7115C44.7205 34.922 45.1407 35.0359 45.574 35.0359C45.6566 35.0359 45.7399 35.0318 45.8231 35.0236C46.5714 34.9495 47.2398 34.5481 47.657 33.9224L51.0217 28.8753L55.4224 30.5727C56.0396 30.8107 56.5709 31.1905 56.9887 31.6643L53.978 34.675C52.8902 35.7628 52.2912 37.209 52.2912 38.7471V51.1285C52.2912 51.6094 52.6811 51.9993 53.162 51.9993C53.6429 51.9993 54.0328 51.6094 54.0328 51.1285V38.7471C54.0328 37.6742 54.4506 36.6653 55.2094 35.9065L57.8517 33.2642C57.9578 33.6535 58.0074 34.0628 57.9906 34.4812L57.3162 51.0932C57.2967 51.5738 57.6704 51.9791 58.1509 51.9987C58.1629 51.9992 58.1749 51.9994 58.1869 51.9994C58.6514 51.9994 59.0373 51.6324 59.0562 51.164L59.7309 34.5516C59.8297 32.0874 58.3502 29.8356 56.0493 28.9481ZM34.6099 17.6796C34.4563 16.8435 33.6821 16.2358 32.8465 16.2977C32.7804 16.3024 32.7124 16.2978 32.6439 16.2839C32.2977 16.213 32.0366 15.8477 32.0366 15.4342V14.8089C32.0366 14.405 32.3065 14.0411 32.651 13.9806C32.9417 13.9295 33.2201 14.0362 33.3963 14.266C33.5561 14.4744 33.7694 14.6235 34.0129 14.6968C34.3696 14.8046 34.7628 14.7413 35.0651 14.5279C35.6097 14.1435 36.0901 13.6738 36.4931 13.1319C36.7801 12.7459 36.6998 12.2005 36.314 11.9136C35.9279 11.6266 35.3826 11.7068 35.0956 12.0927C34.8946 12.363 34.6675 12.6084 34.4175 12.8255C34.1414 12.5893 33.8189 12.4186 33.4732 12.3212C33.2495 11.4642 32.8513 9.62796 32.8513 7.41339C32.8513 6.0797 33.2624 5.14262 34.0732 4.62828C34.7058 4.22691 35.3754 4.21088 35.3749 4.21077C35.5975 4.21077 35.8141 4.12311 35.9758 3.9702C35.997 3.95023 38.1376 1.96369 41.8035 1.7655C45.1591 1.58437 47.7497 2.43147 49.2949 4.21576C50.8523 6.01422 51.371 8.77529 50.8083 12.2311C50.5751 12.2229 50.3197 12.2405 50.0656 12.2829L49.2475 10.3182C49.0806 9.91741 48.6433 9.70099 48.2232 9.81048C48.1423 9.83161 40.1008 11.8702 36.729 7.6723C36.428 7.2974 35.88 7.23749 35.5048 7.53867C35.1299 7.83984 35.07 8.38785 35.3713 8.76287C38.8145 13.0497 45.6465 12.1171 47.9208 11.6623L48.5535 13.1816C48.8255 13.8347 49.5214 14.1913 50.2074 14.0296C50.4889 13.9633 50.7579 13.9618 50.8589 13.9818C51.2111 14.0519 51.4766 14.4031 51.4766 14.799V15.4341C51.4766 15.8477 51.2155 16.2129 50.8693 16.2838C50.8009 16.2978 50.7325 16.3025 50.6667 16.2976C49.8312 16.2367 49.057 16.8433 48.9033 17.6796C48.2698 21.1283 45.2642 23.6315 41.7566 23.6315C38.249 23.6315 35.2434 21.1283 34.6099 17.6796ZM38.4728 33.0722C38.252 33.293 37.9953 33.3038 37.8618 33.2906C37.7283 33.2775 37.4786 33.2164 37.3054 32.9566L33.9157 27.8721L35.2789 26.5089L40.4827 31.0623L38.4728 33.0722ZM40.9295 34.2224L40.9822 33.0256L41.7565 32.2513L42.5308 33.0256L42.5835 34.2224H40.9295ZM41.7566 29.8627L36.9247 25.6348V23.9682C38.3295 24.8617 39.9917 25.3731 41.7566 25.3731C43.5215 25.3731 45.1838 24.8617 46.5886 23.9682V25.6348L41.7566 29.8627ZM46.208 32.9566C46.0347 33.2165 45.7849 33.2775 45.6517 33.2906C45.518 33.3038 45.2613 33.293 45.0405 33.0721L43.0306 31.0622L48.2344 26.5088L49.5976 27.872L46.208 32.9566Z" fill="white"/>
</g>
</g>
<g id="Group_3">
<g id="Group_4">
<path id="Vector_2" d="M27.9039 33.5119L23.6519 31.6559L21.3276 29.3317C21.1719 29.1758 20.9718 29.0922 20.768 29.0792V27.7093C22.7544 26.404 24.2081 24.3279 24.6752 21.8541C24.9039 21.8643 25.1348 21.8424 25.3624 21.7886C26.4766 21.5249 27.2853 20.4571 27.2853 19.2496V18.6148C27.2853 17.7326 26.8476 16.939 26.1694 16.4735C26.3689 15.6832 26.4706 14.8748 26.4706 14.061C26.4706 10.4534 24.5205 7.27591 21.5811 5.45144C21.5497 2.44051 18.9798 0 15.8237 0C12.6677 0 10.0977 2.44051 10.0663 5.45144C7.12705 7.27591 5.17696 10.4536 5.17696 14.061C5.17696 14.8724 5.27797 15.6785 5.47628 16.4665C4.79846 16.9297 4.36226 17.727 4.36226 18.6243V19.2496C4.36226 20.4571 5.17092 21.5249 6.28517 21.7886C6.51274 21.8425 6.74355 21.8643 6.9724 21.8541C7.43948 24.3279 8.89323 26.404 10.8797 27.7093V29.0792C10.6759 29.0922 10.4757 29.1758 10.32 29.3317L7.99574 31.6559L3.74388 33.5119C1.58051 34.4563 0.194228 36.6753 0.294194 39.0337L0.808419 51.1658C0.828273 51.6337 1.21386 51.9997 1.67781 51.9997C1.69023 51.9997 1.70277 51.9995 1.71531 51.9989C2.19587 51.9786 2.56879 51.5726 2.54847 51.092L2.03413 38.9598C2.00104 38.1781 2.20423 37.4196 2.58621 36.7667L4.87172 39.5094C5.59401 40.3761 5.99166 41.4747 5.99166 42.6027V51.129C5.99166 51.6099 6.38154 51.9997 6.86244 51.9997C7.34335 51.9997 7.73323 51.6099 7.73323 51.129V42.6027C7.73323 41.0681 7.19206 39.5736 6.20959 38.3945L3.77988 35.4788C3.98643 35.3365 4.20598 35.2104 4.44063 35.108L8.14621 33.4904L10.7648 37.7409C11.0234 38.1606 11.4509 38.4451 11.9378 38.5218C12.0254 38.5356 12.1131 38.5423 12.2006 38.5423C12.5987 38.5423 12.9865 38.4013 13.2939 38.1389L14.9533 36.723V51.1288C14.9533 51.6097 15.3432 51.9996 15.8241 51.9996C16.305 51.9996 16.6949 51.6097 16.6949 51.1288V36.7232L18.3541 38.1391C18.6615 38.4015 19.0493 38.5426 19.4475 38.5426C19.5348 38.5426 19.6227 38.5357 19.7102 38.522C20.1971 38.4454 20.6246 38.1608 20.8832 37.7411L23.5018 33.4905L27.2074 35.1081C27.4419 35.2105 27.6616 35.3366 27.8681 35.4789L25.4384 38.3946C24.456 39.5736 23.9148 41.0682 23.9148 42.6028V51.1291C23.9148 51.61 24.3047 51.9999 24.7856 51.9999C25.2665 51.9999 25.6564 51.61 25.6564 51.1291V42.6028C25.6564 41.4748 26.0541 40.3762 26.7763 39.5095L29.0618 36.7669C29.4438 37.4197 29.647 38.1782 29.6139 38.9599L29.0997 51.0922C29.0793 51.5726 29.4523 51.9786 29.9328 51.999C29.9454 51.9996 29.9578 51.9999 29.9703 51.9999C30.4343 51.9999 30.8199 51.6339 30.8397 51.1659L31.3539 39.0338C31.4538 36.6754 30.0674 34.4563 27.9039 33.5119ZM15.824 1.74156C17.6765 1.74156 19.2395 2.92339 19.7017 4.5247C18.4996 4.07096 17.1915 3.82146 15.824 3.82146C14.4564 3.82146 13.1483 4.07096 11.9462 4.5247C12.4084 2.92339 13.9713 1.74156 15.824 1.74156ZM8.67716 21.4952C8.52367 20.6589 7.7482 20.0514 6.91388 20.1132C6.83992 20.1184 6.76352 20.1122 6.68643 20.0938C6.35437 20.0152 6.10394 19.6523 6.10394 19.2496V18.6243C6.10394 18.2204 6.37388 17.8565 6.71836 17.796C7.00908 17.7449 7.28739 17.8517 7.4634 18.0813C7.62328 18.2898 7.83656 18.4389 8.08026 18.5125C8.43682 18.6202 8.8303 18.5569 9.1324 18.3434C9.66868 17.9649 10.1429 17.5035 10.5418 16.9722C10.8305 16.5877 10.7529 16.0418 10.3683 15.7531C9.98368 15.4644 9.43787 15.5421 9.14912 15.9266C8.95162 16.1896 8.72929 16.4286 8.48477 16.641C8.11219 16.3224 7.65532 16.1229 7.1707 16.0624C7.00386 15.4066 6.91852 14.7358 6.91852 14.0612C6.91852 9.37542 10.9134 5.56314 15.824 5.56314C20.7344 5.56314 24.7293 9.3753 24.7293 14.0612C24.7293 14.7346 24.6444 15.4039 24.4781 16.0586C24.2489 16.0768 24.016 16.1143 23.8004 16.1703L23.1458 15.632C22.8169 15.3615 22.4029 15.2261 21.9839 15.2511C20.7039 15.3267 14.1489 15.4998 10.7858 11.4749C10.4775 11.106 9.92841 11.0567 9.55932 11.3651C9.19022 11.6735 9.14111 12.2226 9.44948 12.5916C11.1081 14.5767 13.5409 15.9189 16.68 16.5812C19.0835 17.0882 21.22 17.039 22.0571 16.9913L23.0784 17.8311C23.3595 18.0622 23.7536 18.0949 24.0684 17.9116C24.2161 17.8312 24.7107 17.7543 24.9265 17.7974C25.2787 17.8674 25.5441 18.2187 25.5441 18.6148V19.2496C25.5441 19.6524 25.2936 20.0153 24.9616 20.0938C24.8846 20.112 24.8081 20.1187 24.7341 20.1131C23.9003 20.0525 23.1244 20.6589 22.9708 21.4951C22.3373 24.944 19.3317 27.4472 15.8241 27.4472C12.3163 27.4472 9.31062 24.944 8.67716 21.4952ZM12.2132 36.7717L9.59415 32.5205L10.9358 31.1788L14.5418 34.7847L12.2132 36.7717ZM15.824 33.6038L12.6213 30.4012V28.5997C13.6211 28.9803 14.7015 29.1887 15.824 29.1887C16.9464 29.1887 18.0268 28.9803 19.0266 28.5998V30.4012L15.824 33.6038ZM19.4347 36.7717L17.1061 34.7847L20.7121 31.1788L22.0538 32.5205L19.4347 36.7717Z" fill="white"/>
</g>
</g>
</g>
</svg>
